<?xml version="1.0" standalone="no"?>
<!DOCTYPE svg PUBLIC "-//W3C//DTD SVG 20010904//EN"
 "http://www.w3.org/TR/2001/REC-SVG-20010904/DTD/svg10.dtd">
<svg version="1.0" xmlns="http://www.w3.org/2000/svg"
 width="489.000000pt" height="140.000000pt" viewBox="0 0 489.000000 140.000000"
 preserveAspectRatio="xMidYMid meet">

<g transform="translate(0.000000,140.000000) scale(0.100000,-0.100000)"
fill="#ffffff" stroke="none">
<path d="M4128 1130 c-124 -21 -205 -70 -239 -144 -45 -100 -1 -197 107 -239
43 -16 172 -40 279 -52 93 -10 125 -22 125 -50 0 -29 -16 -35 -92 -35 -57 0
-63 2 -95 36 -28 30 -36 34 -48 24 -11 -9 -63 -13 -165 -14 -82 0 -149 -3
-147 -6 2 -3 11 -23 21 -45 45 -99 108 -140 241 -159 l80 -12 6 -79 c6 -83 12
-85 9 -3 -2 73 28 111 60 73 9 -11 10 -29 3 -69 -10 -53 -2 -89 14 -72 4 4 8
40 8 79 l0 72 95 7 c122 8 201 37 256 92 97 95 79 238 -37 297 -47 23 -139 43
-278 59 -142 16 -178 32 -150 66 10 13 28 15 82 12 61 -3 72 -7 94 -32 19 -22
27 -26 38 -16 9 7 65 12 159 13 l144 2 -21 35 c-42 71 -57 87 -107 114 -88 48
-300 70 -442 46z"/>
<path d="M143 1099 c4 -13 7 -177 7 -364 0 -305 2 -337 15 -318 37 52 138 49
188 -7 31 -35 34 -71 16 -241 -9 -88 -8 -104 5 -118 28 -27 38 -1 32 80 -3 41
-8 184 -12 319 l-6 245 159 0 160 0 -4 -67 c-1 -38 -5 -99 -7 -137 l-3 -69 24
9 c31 12 194 12 225 0 l23 -9 0 348 c0 323 -1 347 -17 339 -22 -12 -214 -12
-236 0 -16 8 -17 -1 -13 -112 2 -67 7 -129 11 -137 7 -13 -13 -15 -155 -15
-142 0 -162 2 -155 15 4 8 9 70 11 137 4 111 3 120 -13 112 -24 -13 -215 -11
-240 2 -19 10 -20 9 -15 -12z"/>
<path d="M1318 1114 c-4 -3 -5 -11 -2 -18 3 -7 -54 -156 -125 -332 -93 -230
-132 -337 -138 -384 -10 -76 -7 -100 13 -100 16 0 23 25 26 100 l3 55 84 3
c46 2 97 -2 113 -7 l28 -10 0 55 c0 53 1 55 23 47 29 -10 245 -10 274 0 l22 8
-3 -160 c-3 -135 -1 -161 11 -161 12 0 13 15 8 88 -4 63 -2 94 7 112 17 32 66
40 86 13 13 -17 14 -17 27 1 13 17 23 18 86 13 67 -6 70 -5 56 11 -23 26 -267
616 -267 646 0 26 -13 35 -25 16 -8 -13 -278 -13 -291 0 -6 6 -13 8 -16 4z
m162 -228 c0 -18 67 -194 84 -221 13 -20 11 -20 -90 -20 -101 0 -103 0 -90 20
18 28 76 192 76 216 0 10 5 19 10 19 6 0 10 -6 10 -14z"/>
<path d="M2017 722 c1 -324 4 -397 15 -397 10 0 12 16 10 69 -3 54 -1 67 10
64 10 -4 12 -31 10 -121 -2 -78 1 -117 8 -122 26 -16 32 13 20 99 -15 103 -9
133 26 142 46 12 137 -13 161 -43 18 -22 23 -24 23 -11 0 29 35 38 153 38 185
0 268 23 334 92 48 50 65 101 71 209 8 163 -38 259 -151 312 -81 39 -153 47
-414 47 -135 0 -252 4 -261 9 -16 8 -17 -19 -15 -387z m393 209 c148 -12 185
-43 185 -155 0 -80 -17 -118 -64 -144 -33 -19 -55 -22 -144 -22 l-105 0 -4
153 c-2 83 -8 161 -13 171 -7 17 -5 18 21 12 16 -4 72 -11 124 -15z"/>
<path d="M2998 680 c2 -357 0 -438 -13 -506 -21 -109 -8 -156 40 -138 23 9 28
46 16 123 -18 115 -14 225 8 252 19 24 20 24 263 27 221 3 246 1 259 -14 11
-13 13 -45 11 -135 -3 -116 5 -146 31 -120 7 7 7 39 -1 111 -15 146 8 205 71
181 33 -13 37 -28 37 -131 0 -54 4 -91 11 -96 20 -12 29 19 21 71 -10 69 -9
232 2 279 8 36 8 38 -12 27 -13 -7 -99 -11 -241 -11 -170 0 -221 -3 -222 -12
0 -7 -1 -26 -2 -43 -1 -16 -6 -31 -12 -32 -6 -2 -9 23 -7 65 2 37 -1 80 -7 96
-11 28 -11 28 16 20 16 -5 105 -9 198 -9 94 0 178 -4 189 -9 16 -8 17 -6 10
15 -11 30 -12 115 -1 152 7 26 6 27 -14 17 -14 -8 -75 -11 -182 -9 -89 2 -177
0 -195 -5 -32 -8 -32 -7 -21 18 9 20 9 32 1 51 -17 36 -15 38 16 29 15 -5 119
-9 232 -9 113 0 214 -4 224 -9 17 -8 18 -7 11 10 -14 30 -18 112 -7 142 l9 27
-371 0 -371 0 3 -425z"/>
<path d="M136 305 c-21 -94 -19 -119 11 -123 31 -5 36 25 20 123 l-12 80 -19
-80z"/>
<path d="M2286 354 c-9 -24 -7 -54 4 -54 6 0 10 16 10 35 0 38 -4 44 -14 19z"/>
<path d="M1758 302 c-2 -18 -1 -35 4 -38 17 -11 21 5 11 38 l-9 33 -6 -33z"/>
<path d="M2287 194 c-14 -14 -8 -74 8 -74 16 0 18 19 6 58 -3 13 -9 20 -14 16z"/>
</g>
</svg>
