<?xml version="1.0" standalone="no"?>
<!DOCTYPE svg PUBLIC "-//W3C//DTD SVG 20010904//EN"
 "http://www.w3.org/TR/2001/REC-SVG-20010904/DTD/svg10.dtd">
<svg version="1.0" xmlns="http://www.w3.org/2000/svg"
 width="761.000000pt" height="761.000000pt" viewBox="0 0 761.000000 761.000000"
 preserveAspectRatio="xMidYMid meet">

<g transform="translate(0.000000,761.000000) scale(0.100000,-0.100000)"
fill="#000000" stroke="none">
<path d="M5468 6440 c-124 -21 -205 -70 -239 -144 -45 -100 -1 -197 107 -239
43 -16 172 -40 279 -52 93 -10 125 -22 125 -50 0 -29 -16 -35 -92 -35 -57 0
-63 2 -95 36 -28 30 -36 34 -48 24 -11 -9 -63 -13 -165 -14 -82 0 -149 -3
-147 -6 2 -3 11 -23 21 -45 45 -99 108 -140 241 -159 l80 -12 6 -79 c6 -83 12
-85 9 -3 -2 73 28 111 60 73 9 -11 10 -29 3 -69 -10 -53 -2 -89 14 -72 4 4 8
40 8 79 l0 72 95 7 c122 8 201 37 256 92 97 95 79 238 -37 297 -47 23 -139 43
-278 59 -142 16 -178 32 -150 66 10 13 28 15 82 12 61 -3 72 -7 94 -32 19 -22
27 -26 38 -16 9 7 65 12 159 13 l144 2 -21 35 c-42 71 -57 87 -107 114 -88 48
-300 70 -442 46z"/>
<path d="M1483 6409 c4 -13 7 -177 7 -364 0 -305 2 -337 15 -318 37 52 138 49
188 -7 31 -35 34 -71 16 -241 -9 -88 -8 -104 5 -118 28 -27 38 -1 32 80 -3 41
-8 184 -12 319 l-6 245 159 0 160 0 -4 -67 c-1 -38 -5 -99 -7 -137 l-3 -69 24
9 c31 12 194 12 225 0 l23 -9 0 348 c0 323 -1 347 -17 339 -22 -12 -214 -12
-236 0 -16 8 -17 -1 -13 -112 2 -67 7 -129 11 -137 7 -13 -13 -15 -155 -15
-142 0 -162 2 -155 15 4 8 9 70 11 137 4 111 3 120 -13 112 -24 -13 -215 -11
-240 2 -19 10 -20 9 -15 -12z"/>
<path d="M2658 6424 c-4 -3 -5 -11 -2 -18 3 -7 -54 -156 -125 -332 -93 -230
-132 -337 -138 -384 -10 -76 -7 -100 13 -100 16 0 23 25 26 100 l3 55 84 3
c46 2 97 -2 113 -7 l28 -10 0 55 c0 53 1 55 23 47 29 -10 245 -10 274 0 l22 8
-3 -160 c-3 -135 -1 -161 11 -161 12 0 13 15 8 88 -4 63 -2 94 7 112 17 32 66
40 86 13 13 -17 14 -17 27 1 13 17 23 18 86 13 67 -6 70 -5 56 11 -23 26 -267
616 -267 646 0 26 -13 35 -25 16 -8 -13 -278 -13 -291 0 -6 6 -13 8 -16 4z
m162 -228 c0 -18 67 -194 84 -221 13 -20 11 -20 -90 -20 -101 0 -103 0 -90 20
18 28 76 192 76 216 0 10 5 19 10 19 6 0 10 -6 10 -14z"/>
<path d="M3357 6032 c1 -324 4 -397 15 -397 10 0 12 16 10 69 -3 54 -1 67 10
64 10 -4 12 -31 10 -121 -2 -78 1 -117 8 -122 26 -16 32 13 20 99 -15 103 -9
133 26 142 46 12 137 -13 161 -43 18 -22 23 -24 23 -11 0 29 35 38 153 38 185
0 268 23 334 92 48 50 65 101 71 209 8 163 -38 259 -151 312 -81 39 -153 47
-414 47 -135 0 -252 4 -261 9 -16 8 -17 -19 -15 -387z m393 209 c148 -12 185
-43 185 -155 0 -80 -17 -118 -64 -144 -33 -19 -55 -22 -144 -22 l-105 0 -4
153 c-2 83 -8 161 -13 171 -7 17 -5 18 21 12 16 -4 72 -11 124 -15z"/>
<path d="M4338 5990 c2 -357 0 -438 -13 -506 -21 -109 -8 -156 40 -138 23 9
28 46 16 123 -18 115 -14 225 8 252 19 24 20 24 263 27 221 3 246 1 259 -14
11 -13 13 -45 11 -135 -3 -116 5 -146 31 -120 7 7 7 39 -1 111 -15 146 8 205
71 181 33 -13 37 -28 37 -131 0 -54 4 -91 11 -96 20 -12 29 19 21 71 -10 69
-9 232 2 279 8 36 8 38 -12 27 -13 -7 -99 -11 -241 -11 -170 0 -221 -3 -222
-12 0 -7 -1 -26 -2 -43 -1 -16 -6 -31 -12 -32 -6 -2 -9 23 -7 65 2 37 -1 80
-7 96 -11 28 -11 28 16 20 16 -5 105 -9 198 -9 94 0 178 -4 189 -9 16 -8 17
-6 10 15 -11 30 -12 115 -1 152 7 26 6 27 -14 17 -14 -8 -75 -11 -182 -9 -89
2 -177 0 -195 -5 -32 -8 -32 -7 -21 18 9 20 9 32 1 51 -17 36 -15 38 16 29 15
-5 119 -9 232 -9 113 0 214 -4 224 -9 17 -8 18 -7 11 10 -14 30 -18 112 -7
142 l9 27 -371 0 -371 0 3 -425z"/>
<path d="M1476 5615 c-21 -94 -19 -119 11 -123 31 -5 36 25 20 123 l-12 80
-19 -80z"/>
<path d="M3626 5664 c-9 -24 -7 -54 4 -54 6 0 10 16 10 35 0 38 -4 44 -14 19z"/>
<path d="M3098 5612 c-2 -18 -1 -35 4 -38 17 -11 21 5 11 38 l-9 33 -6 -33z"/>
<path d="M3627 5504 c-14 -14 -8 -74 8 -74 16 0 18 19 6 58 -3 13 -9 20 -14
16z"/>
<path d="M3605 5284 c-237 -26 -489 -118 -695 -252 -115 -76 -327 -289 -403
-405 -177 -269 -266 -583 -254 -892 6 -158 16 -216 58 -362 75 -261 196 -463
388 -653 177 -175 379 -294 616 -365 154 -46 278 -65 435 -65 732 0 1342 513
1480 1245 21 113 24 330 6 454 -36 242 -145 511 -280 691 -84 112 -260 281
-366 351 -168 111 -375 196 -570 234 -83 16 -336 27 -415 19z m344 -210 c171
-25 361 -96 509 -190 28 -19 52 -37 52 -41 0 -5 -19 -21 -41 -36 l-40 -29 -57
34 c-190 113 -390 168 -612 168 -230 0 -437 -57 -622 -170 -26 -16 -52 -30
-56 -30 -4 0 -25 15 -46 34 l-40 33 57 36 c262 168 586 237 896 191z m-943
-286 l17 -52 -75 -70 c-194 -182 -308 -386 -364 -648 -25 -117 -23 -361 4
-478 11 -47 19 -85 19 -85 -1 -1 -19 -13 -39 -28 -20 -15 -41 -27 -47 -27 -5
0 -20 44 -33 98 -20 84 -23 122 -23 292 0 168 3 208 22 285 58 234 159 425
316 598 39 43 172 163 184 167 1 0 9 -23 19 -52z m1637 -48 c198 -182 335
-432 392 -718 24 -116 16 -421 -13 -535 -11 -43 -22 -81 -26 -84 -8 -8 -86 47
-86 62 0 7 9 54 20 106 14 65 20 133 20 219 0 337 -144 661 -395 887 l-65 59
16 52 17 51 26 -18 c14 -11 57 -47 94 -81z m-806 -557 c143 -104 232 -175 233
-185 0 -26 -22 -69 -34 -65 -10 4 -232 164 -650 468 -76 55 -140 98 -143 95
-3 -3 29 -110 71 -238 l76 -232 -28 -23 c-15 -12 -32 -22 -38 -23 -11 0 -254
720 -254 751 0 4 120 -79 268 -186 147 -107 371 -270 499 -362z m593 500 c-10
-32 -39 -119 -63 -193 -25 -74 -79 -243 -122 -375 -43 -132 -101 -312 -130
-400 l-53 -160 -43 0 c-24 0 -43 5 -43 10 2 12 143 451 234 725 37 113 66 207
64 209 -5 6 -42 -20 -228 -157 -178 -131 -184 -133 -234 -94 l-23 18 43 30
c24 17 171 124 328 237 157 114 286 207 286 207 1 0 -6 -26 -16 -57z m-738
-556 l27 -20 -82 -61 c-135 -99 -181 -132 -454 -331 l-262 -190 249 -3 249 -2
12 -40 c7 -22 10 -42 7 -45 -3 -3 -181 -4 -397 -3 l-392 3 158 116 c87 63 241
176 343 249 102 74 235 170 295 215 188 138 198 144 209 138 6 -4 23 -16 38
-26z m623 -292 c39 -29 138 -101 220 -160 83 -60 192 -139 244 -177 l93 -68
-625 0 -624 0 -6 28 c-3 15 -9 35 -12 44 -7 17 22 18 491 20 l498 3 -202 145
c-214 154 -205 144 -181 208 10 27 7 28 104 -43z m-767 -297 c56 -172 125
-384 153 -471 28 -87 55 -155 59 -150 3 4 30 82 60 173 29 91 62 193 73 228
l20 62 43 0 c50 0 53 -7 30 -67 -8 -21 -63 -186 -122 -368 l-107 -330 -68 205
c-37 113 -117 360 -179 550 -61 190 -118 363 -127 385 l-15 40 33 27 c18 16
36 28 39 28 3 0 52 -141 108 -312z m-890 -217 c31 -79 108 -206 177 -291 188
-234 507 -404 797 -426 l85 -7 17 -46 c9 -25 16 -50 16 -55 0 -5 -43 -5 -97
-1 -391 28 -754 242 -981 577 -38 55 -116 207 -136 266 l-15 42 57 0 57 0 23
-59z m2326 37 c-18 -60 -100 -219 -151 -297 -72 -107 -233 -270 -335 -339
-200 -135 -417 -212 -642 -228 -94 -6 -99 -6 -92 12 4 11 12 35 19 55 l11 36
85 7 c246 19 508 139 699 320 101 97 182 206 249 341 l57 115 54 0 c51 0 53
-1 46 -22z"/>
<path d="M1690 4606 c0 -8 -6 -27 -14 -43 -78 -158 -153 -413 -182 -624 -24
-173 -25 -504 -1 -656 36 -225 100 -443 183 -621 24 -52 44 -95 44 -97 0 -9
119 -208 159 -265 178 -257 436 -498 698 -653 485 -285 1027 -390 1566 -302
347 57 766 243 1000 444 27 24 74 58 102 76 28 19 59 44 67 57 8 13 47 55 85
94 162 165 300 363 409 588 154 321 225 629 225 981 -1 258 -30 449 -112 720
-31 102 -86 230 -74 170 11 -52 14 -457 5 -530 -41 -311 -141 -604 -288 -845
-315 -514 -797 -853 -1387 -975 -107 -22 -166 -28 -336 -32 -290 -8 -483 18
-729 99 -218 71 -341 132 -550 272 -182 122 -466 424 -588 624 -17 29 -32 55
-32 57 0 2 -13 26 -29 54 -108 182 -214 535 -237 786 -16 178 6 559 37 616 7
15 6 19 -6 19 -8 0 -15 -6 -15 -14z"/>
</g>
</svg>
